<svg xmlns="http://www.w3.org/2000/svg" viewBox="0 0 128 128" width="128" height="128">
  <path d="M23 35a10 10 0 0 1 10-10h45a10 10 0 0 1 10 10v45a10 10 0 0 1-10 10H33a10 10 0 0 1-10-10V35Z" fill="#2563EB" stroke="#17202A" stroke-width="8" stroke-linejoin="round"/>
  <path d="M37 20h46a10 10 0 0 1 10 10v46" fill="none" stroke="#17202A" stroke-width="8" stroke-linecap="round" stroke-linejoin="round"/>
  <path d="M28 39h46a6 6 0 0 1 6 6v34a6 6 0 0 1-6 6H36a6 6 0 0 1-6-6V45a6 6 0 0 1 6-6Z" fill="none" stroke="#fff" stroke-width="3" stroke-linejoin="round"/>
  <path d="m47 63 8 8 18-20" fill="none" stroke="#fff" stroke-width="7" stroke-linecap="round" stroke-linejoin="round"/>
</svg>
